#N canvas 741 70 848 737 12;
#X declare -lib mrpeach;
#X msg 204 67 devices;
#X msg 379 74 close;
#X msg 301 72 open 5;
#X obj 214 186 sel 13 10;
#X floatatom 213 363 5 0 0 0 - - -;
#X obj 213 299 fromsymbol;
#X obj 217 142 comport 5 9600;
#X obj 211 229 zl group 100;
#X obj 203 259 iem_alisttosym;
#X floatatom 129 693 5 0 0 0 - - -;
#X obj 129 651 < 0;
#X msg 505 715 300;
#X floatatom 478 660 5 0 0 0 - - -;
#X floatatom 323 627 5 0 0 0 - - -;
#X obj 54 686 - -1;
#X obj 58 763 + 440;
#X floatatom 324 725 5 0 0 0 - - -;
#X obj 288 757 bng 15 250 50 0 empty empty empty 17 7 0 10 -262144
-1 -1;
#X obj 373 768 -;
#X floatatom 373 795 5 0 0 0 - - -;
#X obj 391 688 loadbang;
#X obj 377 937 +~;
#X obj 377 971 osc~;
#X obj 384 1009 *~;
#X obj 384 1087 dac~;
#X floatatom 166 548 5 0 0 0 - - -;
#X floatatom 477 505 5 0 0 0 - - -;
#X msg 477 541 \$1 10;
#X obj 477 575 line~;
#X obj 196 465 &&;
#X obj 466 884 -;
#X obj 499 810 loadbang;
#X floatatom 464 924 5 0 0 0 - - -;
#X obj 439 856 bng 15 250 50 0 empty empty empty 17 7 0 10 -262144
-1 -1;
#X msg 498 846 0.5;
#X obj 384 1044 *~ 0.5;
#X obj 453 760 * 0.15;
#X obj 235 808 bng 15 250 50 0 empty empty empty 17 7 0 10 -262144
-1 -1;
#X obj 149 863 delay 100;
#X msg 160 910 0;
#X msg 225 911 0.5;
#X obj 135 968 *~;
#X obj 137 1021 dac~;
#X floatatom 219 734 5 0 0 0 - - -;
#X obj 215 770 sel 1;
#X obj 66 907 osc~ 400;
#X floatatom 281 508 5 0 0 0 - - -;
#X obj 256 659 < 0.07;
#X obj 190 663 > 0.01;
#X obj 193 700 &&;
#X obj 165 516 gate 1;
#X obj 106 464 != 0;
#X obj 124 492 &&;
#X obj 258 547 > 0;
#X obj 153 583 gate 1;
#X obj 163 430 > 470;
#X obj 215 599 - 470;
#X msg -11 207 connect localhost 8001;
#X obj -18 469 packOSC;
#X msg 65 245 disconnect;
#X msg 67 401 send /UnityOSC/sample \$1;
#X obj -57 506 udpsend;
#X obj -90 95 import mrpeach;
#X obj 323 658 * 100;
#X msg 391 719 200;
#X obj 228 436 < 640;
#X obj 323 597 / 170;
#X connect 0 0 6 0;
#X connect 1 0 6 0;
#X connect 2 0 6 0;
#X connect 3 0 7 0;
#X connect 3 2 7 0;
#X connect 4 0 50 1;
#X connect 4 0 51 0;
#X connect 4 0 55 0;
#X connect 4 0 60 0;
#X connect 4 0 65 0;
#X connect 5 0 4 0;
#X connect 6 0 3 0;
#X connect 7 0 8 0;
#X connect 8 0 5 0;
#X connect 10 0 9 0;
#X connect 13 0 36 0;
#X connect 13 0 47 0;
#X connect 13 0 63 0;
#X connect 16 0 17 0;
#X connect 16 0 18 1;
#X connect 17 0 18 0;
#X connect 18 0 19 0;
#X connect 19 0 21 0;
#X connect 20 0 64 0;
#X connect 21 0 22 0;
#X connect 22 0 23 0;
#X connect 23 0 35 0;
#X connect 25 0 53 0;
#X connect 25 0 54 1;
#X connect 26 0 27 0;
#X connect 27 0 28 0;
#X connect 28 0 23 1;
#X connect 29 0 26 0;
#X connect 29 0 52 1;
#X connect 30 0 32 0;
#X connect 31 0 34 0;
#X connect 32 0 35 1;
#X connect 33 0 30 0;
#X connect 34 0 30 0;
#X connect 35 0 24 0;
#X connect 35 0 24 1;
#X connect 36 0 33 0;
#X connect 36 0 30 1;
#X connect 37 0 38 0;
#X connect 37 0 40 0;
#X connect 38 0 39 0;
#X connect 39 0 41 1;
#X connect 40 0 41 1;
#X connect 41 0 42 0;
#X connect 41 0 42 1;
#X connect 43 0 44 0;
#X connect 44 0 37 0;
#X connect 45 0 41 0;
#X connect 47 0 43 0;
#X connect 50 0 25 0;
#X connect 51 0 52 0;
#X connect 52 0 50 0;
#X connect 53 0 54 0;
#X connect 54 0 56 0;
#X connect 55 0 29 0;
#X connect 56 0 10 0;
#X connect 56 0 66 0;
#X connect 57 0 61 0;
#X connect 58 0 61 0;
#X connect 59 0 61 0;
#X connect 60 0 58 0;
#X connect 63 0 16 0;
#X connect 64 0 18 0;
#X connect 65 0 29 1;
#X connect 66 0 13 0;
