#N canvas 616 181 1440 809 10;
#X obj 72 48 dumpOSC 8001;
#X floatatom 73 156 5 0 0 0 - - -;
#X floatatom 346 193 5 0 0 0 - - -;
#X obj 353 137 unpack f;
#X obj 72 88 OSCroute /Position;
#X floatatom 217 260 5 0 0 0 - - -;
#X msg 217 293 \$1 10;
#X obj 217 327 line~;
#X obj 108 543 +~;
#X obj 108 577 osc~;
#X obj 115 615 *~;
#X obj 115 693 dac~;
#X obj 115 650 *~ 0.5;
#X floatatom 104 509 5 0 0 0 - - -;
#X obj 176 187 > 0;
#X obj 153 215 &&;
#X obj 106 242 gate 1;
#X floatatom 106 301 5 0 0 0 - - -;
#X obj 108 345 * 100;
#X obj 32 372 loadbang;
#X msg 33 405 200;
#X obj 69 407 bng 15 250 50 0 empty empty empty 17 7 0 10 -262144 -1
-1;
#X obj 104 469 -;
#X obj 104 271 / 8;
#X obj 129 186 < 8;
#X connect 0 0 4 0;
#X connect 1 0 14 0;
#X connect 1 0 16 1;
#X connect 1 0 24 0;
#X connect 3 0 2 0;
#X connect 4 0 1 0;
#X connect 4 1 3 0;
#X connect 5 0 6 0;
#X connect 6 0 7 0;
#X connect 7 0 10 1;
#X connect 8 0 9 0;
#X connect 9 0 10 0;
#X connect 10 0 12 0;
#X connect 12 0 11 0;
#X connect 12 0 11 1;
#X connect 13 0 8 0;
#X connect 14 0 15 1;
#X connect 15 0 5 0;
#X connect 15 0 16 0;
#X connect 16 0 23 0;
#X connect 17 0 18 0;
#X connect 18 0 22 1;
#X connect 18 0 21 0;
#X connect 19 0 20 0;
#X connect 20 0 22 0;
#X connect 21 0 22 0;
#X connect 22 0 13 0;
#X connect 23 0 17 0;
#X connect 24 0 15 0;
