#N canvas 644 333 450 300 10;
#X obj 72 48 dumpOSC 8001;
#X floatatom 71 137 5 0 0 0 - - -;
#X floatatom 161 193 5 0 0 0 - - -;
#X obj 168 137 unpack f;
#X obj 72 88 OSCroute /Position;
#X connect 0 0 4 0;
#X connect 3 0 2 0;
#X connect 4 0 1 0;
#X connect 4 1 3 0;
